ISO-10303-21;
HEADER;
FILE_DESCRIPTION(('FreeCAD Model'),'2;1');
FILE_NAME('Open CASCADE Shape Model','2026-06-18T17:45:00',(''),(''),
  'Open CASCADE STEP processor 7.8','FreeCAD','Unknown');
FILE_SCHEMA(('AUTOMOTIVE_DESIGN { 1 0 10303 214 1 1 1 1 }'));
ENDSEC;
DATA;
#1 = APPLICATION_PROTOCOL_DEFINITION('international standard',
  'automotive_design',2000,#2);
#2 = APPLICATION_CONTEXT(
  'core data for automotive mechanical design processes');
#3 = SHAPE_DEFINITION_REPRESENTATION(#4,#10);
#4 = PRODUCT_DEFINITION_SHAPE('','',#5);
#5 = PRODUCT_DEFINITION('design','',#6,#9);
#6 = PRODUCT_DEFINITION_FORMATION('','',#7);
#7 = PRODUCT('Adapter','Adapter','',(#8));
#8 = PRODUCT_CONTEXT('',#2,'mechanical');
#9 = PRODUCT_DEFINITION_CONTEXT('part definition',#2,'design');
#10 = ADVANCED_BREP_SHAPE_REPRESENTATION('',(#11,#15),#918);
#11 = AXIS2_PLACEMENT_3D('',#12,#13,#14);
#12 = CARTESIAN_POINT('',(0.,0.,0.));
#13 = DIRECTION('',(0.,0.,1.));
#14 = DIRECTION('',(1.,0.,-0.));
#15 = MANIFOLD_SOLID_BREP('',#16);
#16 = CLOSED_SHELL('',(#17,#57,#153,#184,#293,#321,#345,#434,#467,#505,
    #522,#547,#572,#597,#614,#631,#648,#665,#682,#694,#711,#728,#745,
    #762,#807,#827,#847,#867,#884,#901));
#17 = ADVANCED_FACE('',(#18),#52,.F.);
#18 = FACE_BOUND('',#19,.F.);
#19 = EDGE_LOOP('',(#20,#30,#38,#46));
#20 = ORIENTED_EDGE('',*,*,#21,.T.);
#21 = EDGE_CURVE('',#22,#24,#26,.T.);
#22 = VERTEX_POINT('',#23);
#23 = CARTESIAN_POINT('',(-1.876647551212,-40.02899434733,
    -10.55325687726));
#24 = VERTEX_POINT('',#25);
#25 = CARTESIAN_POINT('',(-2.902707923604,-37.20991648431,
    -10.55291861723));
#26 = LINE('',#27,#28);
#27 = CARTESIAN_POINT('',(-1.876647551212,-40.02899434733,
    -10.55325687726));
#28 = VECTOR('',#29,1.);
#29 = DIRECTION('',(-0.342020124131,0.939692621008,1.127533428399E-04));
#30 = ORIENTED_EDGE('',*,*,#31,.T.);
#31 = EDGE_CURVE('',#24,#32,#34,.T.);
#32 = VERTEX_POINT('',#33);
#33 = CARTESIAN_POINT('',(-2.902707923604,-37.2094269282,-14.63290638786
    ));
#34 = LINE('',#35,#36);
#35 = CARTESIAN_POINT('',(-2.902707923604,-37.20991648431,
    -10.55291861723));
#36 = VECTOR('',#37,1.);
#37 = DIRECTION('',(-1.084231107992E-17,1.199896003305E-04,
    -0.999999992801));
#38 = ORIENTED_EDGE('',*,*,#39,.F.);
#39 = EDGE_CURVE('',#40,#32,#42,.T.);
#40 = VERTEX_POINT('',#41);
#41 = CARTESIAN_POINT('',(-1.876647551212,-40.02850479123,
    -14.63324464789));
#42 = LINE('',#43,#44);
#43 = CARTESIAN_POINT('',(-1.876647551212,-40.02850479123,
    -14.63324464789));
#44 = VECTOR('',#45,1.);
#45 = DIRECTION('',(-0.342020124131,0.939692621008,1.127533428399E-04));
#46 = ORIENTED_EDGE('',*,*,#47,.F.);
#47 = EDGE_CURVE('',#22,#40,#48,.T.);
#48 = LINE('',#49,#50);
#49 = CARTESIAN_POINT('',(-1.876647551212,-40.02899434733,
    -10.55325687726));
#50 = VECTOR('',#51,1.);
#51 = DIRECTION('',(-1.084231107992E-17,1.199896003305E-04,
    -0.999999992801));
#52 = PLANE('',#53);
#53 = AXIS2_PLACEMENT_3D('',#54,#55,#56);
#54 = CARTESIAN_POINT('',(-1.876647551212,-40.02899434733,
    -10.55325687726));
#55 = DIRECTION('',(-0.939692627772,-0.342020121669,-4.103885799945E-05)
  );
#56 = DIRECTION('',(-1.084366832238E-17,1.199896003305E-04,
    -0.999999992801));
#57 = ADVANCED_FACE('',(#58,#115,#126,#137),#148,.T.);
#58 = FACE_BOUND('',#59,.T.);
#59 = EDGE_LOOP('',(#60,#68,#69,#77,#85,#93,#101,#109));
#60 = ORIENTED_EDGE('',*,*,#61,.F.);
#61 = EDGE_CURVE('',#22,#62,#64,.T.);
#62 = VERTEX_POINT('',#63);
#63 = CARTESIAN_POINT('',(-15.97203696779,-45.15929617236,
    -10.55387246013));
#64 = LINE('',#65,#66);
#65 = CARTESIAN_POINT('',(-1.876647551212,-40.02899434733,
    -10.55325687726));
#66 = VECTOR('',#67,1.);
#67 = DIRECTION('',(-0.939692627772,-0.342020121669,-4.103885799945E-05)
  );
#68 = ORIENTED_EDGE('',*,*,#21,.T.);
#69 = ORIENTED_EDGE('',*,*,#70,.T.);
#70 = EDGE_CURVE('',#24,#71,#73,.T.);
#71 = VERTEX_POINT('',#72);
#72 = CARTESIAN_POINT('',(-12.57354124881,-40.72981170618,
    -10.55334096806));
#73 = LINE('',#74,#75);
#74 = CARTESIAN_POINT('',(-2.902707923604,-37.20991648431,
    -10.55291861723));
#75 = VECTOR('',#76,1.);
#76 = DIRECTION('',(-0.939692627772,-0.342020121669,-4.103885799945E-05)
  );
#77 = ORIENTED_EDGE('',*,*,#78,.T.);
#78 = EDGE_CURVE('',#71,#79,#81,.T.);
#79 = VERTEX_POINT('',#80);
#80 = CARTESIAN_POINT('',(-21.8082420375,-15.35767838389,-10.5502965759)
  );
#81 = LINE('',#82,#83);
#82 = CARTESIAN_POINT('',(-11.54741037204,-43.54908327842,
    -10.55367925133));
#83 = VECTOR('',#84,1.);
#84 = DIRECTION('',(-0.34202012413,0.939692621008,1.127533428399E-04));
#85 = ORIENTED_EDGE('',*,*,#86,.F.);
#86 = EDGE_CURVE('',#87,#79,#89,.T.);
#87 = VERTEX_POINT('',#88);
#88 = CARTESIAN_POINT('',(-40.60209457712,-22.19808090998,
    -10.55111735307));
#89 = LINE('',#90,#91);
#90 = CARTESIAN_POINT('',(-26.36990095783,-17.01798635619,
    -10.55049579559));
#91 = VECTOR('',#92,1.);
#92 = DIRECTION('',(0.93969262619,0.342020126017,4.103885852115E-05));
#93 = ORIENTED_EDGE('',*,*,#94,.F.);
#94 = EDGE_CURVE('',#95,#87,#97,.T.);
#95 = VERTEX_POINT('',#96);
#96 = CARTESIAN_POINT('',(-31.36739382008,-47.57021414532,
    -10.55416174522));
#97 = LINE('',#98,#99);
#98 = CARTESIAN_POINT('',(-30.34126294331,-50.38948571755,
    -10.55450002849));
#99 = VECTOR('',#100,1.);
#100 = DIRECTION('',(-0.34202012413,0.939692621008,1.127533428399E-04));
#101 = ORIENTED_EDGE('',*,*,#102,.T.);
#102 = EDGE_CURVE('',#95,#103,#105,.T.);
#103 = VERTEX_POINT('',#104);
#104 = CARTESIAN_POINT('',(-16.99809734018,-42.34021830934,
    -10.5535342001));
#105 = LINE('',#106,#107);
#106 = CARTESIAN_POINT('',(-11.58480355039,-40.36994063992,
    -10.55329778727));
#107 = VECTOR('',#108,1.);
#108 = DIRECTION('',(0.939692627772,0.342020121669,4.103885799945E-05));
#109 = ORIENTED_EDGE('',*,*,#110,.F.);
#110 = EDGE_CURVE('',#62,#103,#111,.T.);
#111 = LINE('',#112,#113);
#112 = CARTESIAN_POINT('',(-15.97203696779,-45.15929617236,
    -10.55387246013));
#113 = VECTOR('',#114,1.);
#114 = DIRECTION('',(-0.342020124131,0.939692621008,1.127533428399E-04)
  );
#115 = FACE_BOUND('',#116,.T.);
#116 = EDGE_LOOP('',(#117));
#117 = ORIENTED_EDGE('',*,*,#118,.F.);
#118 = EDGE_CURVE('',#119,#119,#121,.T.);
#119 = VERTEX_POINT('',#120);
#120 = CARTESIAN_POINT('',(-20.74197441527,-39.28283749797,
    -10.5531673462));
#121 = CIRCLE('',#122,3.);
#122 = AXIS2_PLACEMENT_3D('',#123,#124,#125);
#123 = CARTESIAN_POINT('',(-23.74197441527,-39.28283749797,
    -10.5531673462));
#124 = DIRECTION('',(0.,-1.199896003305E-04,0.999999992801));
#125 = DIRECTION('',(1.,0.,0.));
#126 = FACE_BOUND('',#127,.T.);
#127 = EDGE_LOOP('',(#128));
#128 = ORIENTED_EDGE('',*,*,#129,.F.);
#129 = EDGE_CURVE('',#130,#130,#132,.T.);
#130 = VERTEX_POINT('',#131);
#131 = CARTESIAN_POINT('',(-22.29889131848,-24.53697381808,
    -10.5513979959));
#132 = CIRCLE('',#133,3.);
#133 = AXIS2_PLACEMENT_3D('',#134,#135,#136);
#134 = CARTESIAN_POINT('',(-25.29889131848,-24.53697381808,
    -10.5513979959));
#135 = DIRECTION('',(0.,-1.199896003305E-04,0.999999992801));
#136 = DIRECTION('',(1.,0.,0.));
#137 = FACE_BOUND('',#138,.T.);
#138 = EDGE_LOOP('',(#139));
#139 = ORIENTED_EDGE('',*,*,#140,.F.);
#140 = EDGE_CURVE('',#141,#141,#143,.T.);
#141 = VERTEX_POINT('',#142);
#142 = CARTESIAN_POINT('',(-29.08930098718,-27.0124981307,
    -10.55169503307));
#143 = CIRCLE('',#144,3.);
#144 = AXIS2_PLACEMENT_3D('',#145,#146,#147);
#145 = CARTESIAN_POINT('',(-32.08930098718,-27.0124981307,
    -10.55169503307));
#146 = DIRECTION('',(0.,-1.199896003305E-04,0.999999992801));
#147 = DIRECTION('',(1.,0.,0.));
#148 = PLANE('',#149);
#149 = AXIS2_PLACEMENT_3D('',#150,#151,#152);
#150 = CARTESIAN_POINT('',(-22.38927802923,-33.57952089805,
    -10.55248300752));
#151 = DIRECTION('',(0.,-1.199896003305E-04,0.999999992801));
#152 = DIRECTION('',(0.,0.999999992801,1.199896003305E-04));
#153 = ADVANCED_FACE('',(#154),#179,.F.);
#154 = FACE_BOUND('',#155,.F.);
#155 = EDGE_LOOP('',(#156,#164,#165,#173));
#156 = ORIENTED_EDGE('',*,*,#157,.F.);
#157 = EDGE_CURVE('',#40,#158,#160,.T.);
#158 = VERTEX_POINT('',#159);
#159 = CARTESIAN_POINT('',(-11.54763823254,-43.5484572368,
    -14.63366700559));
#160 = LINE('',#161,#162);
#161 = CARTESIAN_POINT('',(-1.876647551212,-40.02850479123,
    -14.63324464789));
#162 = VECTOR('',#163,1.);
#163 = DIRECTION('',(-0.939692627772,-0.342020121669,-4.103885799945E-05
    ));
#164 = ORIENTED_EDGE('',*,*,#39,.T.);
#165 = ORIENTED_EDGE('',*,*,#166,.T.);
#166 = EDGE_CURVE('',#32,#167,#169,.T.);
#167 = VERTEX_POINT('',#168);
#168 = CARTESIAN_POINT('',(-12.57369858911,-40.72937941726,
    -14.63332874556));
#169 = LINE('',#170,#171);
#170 = CARTESIAN_POINT('',(-2.902707923604,-37.2094269282,
    -14.63290638786));
#171 = VECTOR('',#172,1.);
#172 = DIRECTION('',(-0.939692627772,-0.342020121669,-4.103885799945E-05
    ));
#173 = ORIENTED_EDGE('',*,*,#174,.T.);
#174 = EDGE_CURVE('',#167,#158,#175,.T.);
#175 = LINE('',#176,#177);
#176 = CARTESIAN_POINT('',(-11.54756771233,-43.5486509895,
    -14.63366702883));
#177 = VECTOR('',#178,1.);
#178 = DIRECTION('',(0.34202012413,-0.939692621008,-1.127533428399E-04)
  );
#179 = PLANE('',#180);
#180 = AXIS2_PLACEMENT_3D('',#181,#182,#183);
#181 = CARTESIAN_POINT('',(-1.876647551212,-40.02850479123,
    -14.63324464789));
#182 = DIRECTION('',(-9.229048857216E-18,-1.199896003305E-04,
    0.999999992801));
#183 = DIRECTION('',(-0.939692627772,-0.342020121669,-4.103885799945E-05
    ));
#184 = ADVANCED_FACE('',(#185,#244,#255,#266,#277),#288,.F.);
#185 = FACE_BOUND('',#186,.F.);
#186 = EDGE_LOOP('',(#187,#188,#189,#197,#205,#213,#221,#229,#237,#243)
  );
#187 = ORIENTED_EDGE('',*,*,#47,.T.);
#188 = ORIENTED_EDGE('',*,*,#157,.T.);
#189 = ORIENTED_EDGE('',*,*,#190,.T.);
#190 = EDGE_CURVE('',#158,#191,#193,.T.);
#191 = VERTEX_POINT('',#192);
#192 = CARTESIAN_POINT('',(-30.34149078798,-50.38885971942,
    -14.63448778275));
#193 = LINE('',#194,#195);
#194 = CARTESIAN_POINT('',(-1.876647551212,-40.02850479123,
    -14.63324464789));
#195 = VECTOR('',#196,1.);
#196 = DIRECTION('',(-0.939692627772,-0.342020121669,-4.103885799945E-05
    ));
#197 = ORIENTED_EDGE('',*,*,#198,.T.);
#198 = EDGE_CURVE('',#191,#199,#201,.T.);
#199 = VERTEX_POINT('',#200);
#200 = CARTESIAN_POINT('',(-38.52467149857,-53.36729370895,
    -14.63484516386));
#201 = LINE('',#202,#203);
#202 = CARTESIAN_POINT('',(-1.876647551212,-40.02850479123,
    -14.63324464789));
#203 = VECTOR('',#204,1.);
#204 = DIRECTION('',(-0.939692627772,-0.342020121669,-4.103885799945E-05
    ));
#205 = ORIENTED_EDGE('',*,*,#206,.T.);
#206 = EDGE_CURVE('',#199,#207,#209,.T.);
#207 = VERTEX_POINT('',#208);
#208 = CARTESIAN_POINT('',(-38.52467149857,-53.36990948173,
    7.165150479208));
#209 = LINE('',#210,#211);
#210 = CARTESIAN_POINT('',(-38.52467149857,-53.36729370895,
    -14.63484516386));
#211 = VECTOR('',#212,1.);
#212 = DIRECTION('',(1.084231107992E-17,-1.199896003305E-04,
    0.999999992801));
#213 = ORIENTED_EDGE('',*,*,#214,.T.);
#214 = EDGE_CURVE('',#207,#215,#217,.T.);
#215 = VERTEX_POINT('',#216);
#216 = CARTESIAN_POINT('',(-1.876647551212,-40.03112056401,7.16675099517
    ));
#217 = LINE('',#218,#219);
#218 = CARTESIAN_POINT('',(-38.52467149857,-53.36990948173,
    7.165150479208));
#219 = VECTOR('',#220,1.);
#220 = DIRECTION('',(0.939692627772,0.342020121669,4.103885799945E-05));
#221 = ORIENTED_EDGE('',*,*,#222,.T.);
#222 = EDGE_CURVE('',#215,#223,#225,.T.);
#223 = VERTEX_POINT('',#224);
#224 = CARTESIAN_POINT('',(-1.876647551212,-40.03044862225,
    1.566751035483));
#225 = LINE('',#226,#227);
#226 = CARTESIAN_POINT('',(-1.876647551212,-40.03112056401,7.16675099517
    ));
#227 = VECTOR('',#228,1.);
#228 = DIRECTION('',(-1.084231107992E-17,1.199896003305E-04,
    -0.999999992801));
#229 = ORIENTED_EDGE('',*,*,#230,.T.);
#230 = EDGE_CURVE('',#223,#231,#233,.T.);
#231 = VERTEX_POINT('',#232);
#232 = CARTESIAN_POINT('',(-15.97203696779,-45.16075044728,
    1.566135452613));
#233 = LINE('',#234,#235);
#234 = CARTESIAN_POINT('',(-1.876647551212,-40.03044862225,
    1.566751035483));
#235 = VECTOR('',#236,1.);
#236 = DIRECTION('',(-0.939692627772,-0.342020121669,-4.103885799945E-05
    ));
#237 = ORIENTED_EDGE('',*,*,#238,.T.);
#238 = EDGE_CURVE('',#231,#62,#239,.T.);
#239 = LINE('',#240,#241);
#240 = CARTESIAN_POINT('',(-15.97203696779,-45.16075044728,
    1.566135452613));
#241 = VECTOR('',#242,1.);
#242 = DIRECTION('',(-1.084231107992E-17,1.199896003305E-04,
    -0.999999992801));
#243 = ORIENTED_EDGE('',*,*,#61,.F.);
#244 = FACE_BOUND('',#245,.T.);
#245 = EDGE_LOOP('',(#246));
#246 = ORIENTED_EDGE('',*,*,#247,.T.);
#247 = EDGE_CURVE('',#248,#248,#250,.T.);
#248 = VERTEX_POINT('',#249);
#249 = CARTESIAN_POINT('',(-6.199233638964,-41.60399316008,
    3.666562241619));
#250 = CIRCLE('',#251,1.1);
#251 = AXIS2_PLACEMENT_3D('',#252,#253,#254);
#252 = CARTESIAN_POINT('',(-5.165571748414,-41.22777102625,
    3.666607384363));
#253 = DIRECTION('',(-0.342020124131,0.939692621008,1.127533428399E-04)
  );
#254 = DIRECTION('',(-0.939692627772,-0.342020121669,-4.103885799945E-05
    ));
#255 = FACE_BOUND('',#256,.T.);
#256 = EDGE_LOOP('',(#257));
#257 = ORIENTED_EDGE('',*,*,#258,.T.);
#258 = EDGE_CURVE('',#259,#259,#261,.T.);
#259 = VERTEX_POINT('',#260);
#260 = CARTESIAN_POINT('',(-36.26940919192,-52.54845884047,
    2.145236808605));
#261 = CIRCLE('',#262,1.1);
#262 = AXIS2_PLACEMENT_3D('',#263,#264,#265);
#263 = CARTESIAN_POINT('',(-35.23574730137,-52.17223670664,
    2.145281951348));
#264 = DIRECTION('',(-0.342020124131,0.939692621008,1.127533428399E-04)
  );
#265 = DIRECTION('',(-0.939692627772,-0.342020121669,-4.103885799945E-05
    ));
#266 = FACE_BOUND('',#267,.T.);
#267 = EDGE_LOOP('',(#268));
#268 = ORIENTED_EDGE('',*,*,#269,.T.);
#269 = EDGE_CURVE('',#270,#270,#272,.T.);
#270 = VERTEX_POINT('',#271);
#271 = CARTESIAN_POINT('',(-36.26940919192,-52.54686538055,
    -11.13474669579));
#272 = CIRCLE('',#273,1.1);
#273 = AXIS2_PLACEMENT_3D('',#274,#275,#276);
#274 = CARTESIAN_POINT('',(-35.23574730137,-52.17064324671,
    -11.13470155305));
#275 = DIRECTION('',(-0.342020124131,0.939692621008,1.127533428399E-04)
  );
#276 = DIRECTION('',(-0.939692627772,-0.342020121669,-4.103885799945E-05
    ));
#277 = FACE_BOUND('',#278,.T.);
#278 = EDGE_LOOP('',(#279));
#279 = ORIENTED_EDGE('',*,*,#280,.T.);
#280 = EDGE_CURVE('',#281,#281,#283,.T.);
#281 = VERTEX_POINT('',#282);
#282 = CARTESIAN_POINT('',(-6.199233638964,-41.60203492885,
    -12.65344564089));
#283 = CIRCLE('',#284,1.1);
#284 = AXIS2_PLACEMENT_3D('',#285,#286,#287);
#285 = CARTESIAN_POINT('',(-5.165571748414,-41.22581279501,
    -12.65340049815));
#286 = DIRECTION('',(-0.342020124131,0.939692621008,1.127533428399E-04)
  );
#287 = DIRECTION('',(-0.939692627772,-0.342020121669,-4.103885799945E-05
    ));
#288 = PLANE('',#289);
#289 = AXIS2_PLACEMENT_3D('',#290,#291,#292);
#290 = CARTESIAN_POINT('',(-19.24083880479,-46.34983335703,
    -3.964290303807));
#291 = DIRECTION('',(-0.342020124131,0.939692621008,1.127533428399E-04)
  );
#292 = DIRECTION('',(0.939692626981,0.342020126305,4.287332541306E-21));
#293 = ADVANCED_FACE('',(#294,#305),#316,.T.);
#294 = FACE_BOUND('',#295,.T.);
#295 = EDGE_LOOP('',(#296,#297,#298,#299));
#296 = ORIENTED_EDGE('',*,*,#70,.F.);
#297 = ORIENTED_EDGE('',*,*,#31,.T.);
#298 = ORIENTED_EDGE('',*,*,#166,.T.);
#299 = ORIENTED_EDGE('',*,*,#300,.T.);
#300 = EDGE_CURVE('',#167,#71,#301,.T.);
#301 = LINE('',#302,#303);
#302 = CARTESIAN_POINT('',(-12.57356338286,-40.72975089339,
    -11.12729845763));
#303 = VECTOR('',#304,1.);
#304 = DIRECTION('',(3.856391255915E-05,-1.059534849342E-04,
    0.999999993643));
#305 = FACE_BOUND('',#306,.T.);
#306 = EDGE_LOOP('',(#307));
#307 = ORIENTED_EDGE('',*,*,#308,.F.);
#308 = EDGE_CURVE('',#309,#309,#311,.T.);
#309 = VERTEX_POINT('',#310);
#310 = CARTESIAN_POINT('',(-7.225294011357,-38.78295706582,
    -12.65310738086));
#311 = CIRCLE('',#312,1.1);
#312 = AXIS2_PLACEMENT_3D('',#313,#314,#315);
#313 = CARTESIAN_POINT('',(-6.191632120807,-38.40673493199,
    -12.65306223812));
#314 = DIRECTION('',(-0.342020124131,0.939692621008,1.127533428399E-04)
  );
#315 = DIRECTION('',(-0.939692627772,-0.342020121669,-4.103885799945E-05
    ));
#316 = PLANE('',#317);
#317 = AXIS2_PLACEMENT_3D('',#318,#319,#320);
#318 = CARTESIAN_POINT('',(-20.26689917718,-43.530755494,-3.963952043779
    ));
#319 = DIRECTION('',(-0.342020124131,0.939692621008,1.127533428399E-04)
  );
#320 = DIRECTION('',(0.939692626981,0.342020126305,4.287332541306E-21));
#321 = ADVANCED_FACE('',(#322),#340,.F.);
#322 = FACE_BOUND('',#323,.F.);
#323 = EDGE_LOOP('',(#324,#332,#338,#339));
#324 = ORIENTED_EDGE('',*,*,#325,.T.);
#325 = EDGE_CURVE('',#231,#326,#328,.T.);
#326 = VERTEX_POINT('',#327);
#327 = CARTESIAN_POINT('',(-16.99809734018,-42.34167258425,
    1.566473712642));
#328 = LINE('',#329,#330);
#329 = CARTESIAN_POINT('',(-15.97203696779,-45.16075044728,
    1.566135452613));
#330 = VECTOR('',#331,1.);
#331 = DIRECTION('',(-0.342020124131,0.939692621008,1.127533428399E-04)
  );
#332 = ORIENTED_EDGE('',*,*,#333,.T.);
#333 = EDGE_CURVE('',#326,#103,#334,.T.);
#334 = LINE('',#335,#336);
#335 = CARTESIAN_POINT('',(-16.99809734018,-42.34167258425,
    1.566473712642));
#336 = VECTOR('',#337,1.);
#337 = DIRECTION('',(-1.084231107992E-17,1.199896003305E-04,
    -0.999999992801));
#338 = ORIENTED_EDGE('',*,*,#110,.F.);
#339 = ORIENTED_EDGE('',*,*,#238,.F.);
#340 = PLANE('',#341);
#341 = AXIS2_PLACEMENT_3D('',#342,#343,#344);
#342 = CARTESIAN_POINT('',(-15.97203696779,-45.16075044728,
    1.566135452613));
#343 = DIRECTION('',(-0.939692627772,-0.342020121669,-4.103885799945E-05
    ));
#344 = DIRECTION('',(-1.084366832238E-17,1.199896003305E-04,
    -0.999999992801));
#345 = ADVANCED_FACE('',(#346,#396,#407,#418),#429,.T.);
#346 = FACE_BOUND('',#347,.T.);
#347 = EDGE_LOOP('',(#348,#349,#350,#358,#366,#374,#382,#390));
#348 = ORIENTED_EDGE('',*,*,#333,.T.);
#349 = ORIENTED_EDGE('',*,*,#102,.F.);
#350 = ORIENTED_EDGE('',*,*,#351,.F.);
#351 = EDGE_CURVE('',#352,#95,#354,.T.);
#352 = VERTEX_POINT('',#353);
#353 = CARTESIAN_POINT('',(-31.36755116038,-47.56978185639,
    -14.63414952272));
#354 = LINE('',#355,#356);
#355 = CARTESIAN_POINT('',(-31.36741592248,-47.57015341949,
    -11.12729845763));
#356 = VECTOR('',#357,1.);
#357 = DIRECTION('',(3.856391255915E-05,-1.059534849342E-04,
    0.999999993643));
#358 = ORIENTED_EDGE('',*,*,#359,.T.);
#359 = EDGE_CURVE('',#352,#360,#362,.T.);
#360 = VERTEX_POINT('',#361);
#361 = CARTESIAN_POINT('',(-39.55073187097,-50.54821584593,
    -14.63450690383));
#362 = LINE('',#363,#364);
#363 = CARTESIAN_POINT('',(-2.902707923604,-37.2094269282,
    -14.63290638786));
#364 = VECTOR('',#365,1.);
#365 = DIRECTION('',(-0.939692627772,-0.342020121669,-4.103885799945E-05
    ));
#366 = ORIENTED_EDGE('',*,*,#367,.T.);
#367 = EDGE_CURVE('',#360,#368,#370,.T.);
#368 = VERTEX_POINT('',#369);
#369 = CARTESIAN_POINT('',(-39.55073187097,-50.55083161871,
    7.165488739236));
#370 = LINE('',#371,#372);
#371 = CARTESIAN_POINT('',(-39.55073187097,-50.54821584593,
    -14.63450690383));
#372 = VECTOR('',#373,1.);
#373 = DIRECTION('',(1.084231107992E-17,-1.199896003305E-04,
    0.999999992801));
#374 = ORIENTED_EDGE('',*,*,#375,.T.);
#375 = EDGE_CURVE('',#368,#376,#378,.T.);
#376 = VERTEX_POINT('',#377);
#377 = CARTESIAN_POINT('',(-2.902707923604,-37.21204270099,
    7.167089255199));
#378 = LINE('',#379,#380);
#379 = CARTESIAN_POINT('',(-39.55073187097,-50.55083161871,
    7.165488739236));
#380 = VECTOR('',#381,1.);
#381 = DIRECTION('',(0.939692627772,0.342020121669,4.103885799945E-05));
#382 = ORIENTED_EDGE('',*,*,#383,.T.);
#383 = EDGE_CURVE('',#376,#384,#386,.T.);
#384 = VERTEX_POINT('',#385);
#385 = CARTESIAN_POINT('',(-2.902707923604,-37.21137075922,
    1.567089295512));
#386 = LINE('',#387,#388);
#387 = CARTESIAN_POINT('',(-2.902707923604,-37.21204270099,
    7.167089255199));
#388 = VECTOR('',#389,1.);
#389 = DIRECTION('',(-1.084231107992E-17,1.199896003305E-04,
    -0.999999992801));
#390 = ORIENTED_EDGE('',*,*,#391,.T.);
#391 = EDGE_CURVE('',#384,#326,#392,.T.);
#392 = LINE('',#393,#394);
#393 = CARTESIAN_POINT('',(-2.902707923604,-37.21137075922,
    1.567089295512));
#394 = VECTOR('',#395,1.);
#395 = DIRECTION('',(-0.939692627772,-0.342020121669,-4.103885799945E-05
    ));
#396 = FACE_BOUND('',#397,.T.);
#397 = EDGE_LOOP('',(#398));
#398 = ORIENTED_EDGE('',*,*,#399,.F.);
#399 = EDGE_CURVE('',#400,#400,#402,.T.);
#400 = VERTEX_POINT('',#401);
#401 = CARTESIAN_POINT('',(-37.29546956431,-49.72938097745,
    2.145575068633));
#402 = CIRCLE('',#403,1.1);
#403 = AXIS2_PLACEMENT_3D('',#404,#405,#406);
#404 = CARTESIAN_POINT('',(-36.26180767376,-49.35315884361,
    2.145620211377));
#405 = DIRECTION('',(-0.342020124131,0.939692621008,1.127533428399E-04)
  );
#406 = DIRECTION('',(-0.939692627772,-0.342020121669,-4.103885799945E-05
    ));
#407 = FACE_BOUND('',#408,.T.);
#408 = EDGE_LOOP('',(#409));
#409 = ORIENTED_EDGE('',*,*,#410,.F.);
#410 = EDGE_CURVE('',#411,#411,#413,.T.);
#411 = VERTEX_POINT('',#412);
#412 = CARTESIAN_POINT('',(-7.225294011357,-38.78491529706,
    3.666900501648));
#413 = CIRCLE('',#414,1.1);
#414 = AXIS2_PLACEMENT_3D('',#415,#416,#417);
#415 = CARTESIAN_POINT('',(-6.191632120807,-38.40869316322,
    3.666945644391));
#416 = DIRECTION('',(-0.342020124131,0.939692621008,1.127533428399E-04)
  );
#417 = DIRECTION('',(-0.939692627772,-0.342020121669,-4.103885799945E-05
    ));
#418 = FACE_BOUND('',#419,.T.);
#419 = EDGE_LOOP('',(#420));
#420 = ORIENTED_EDGE('',*,*,#421,.F.);
#421 = EDGE_CURVE('',#422,#422,#424,.T.);
#422 = VERTEX_POINT('',#423);
#423 = CARTESIAN_POINT('',(-37.29546956431,-49.72778751753,
    -11.13440843576));
#424 = CIRCLE('',#425,1.1);
#425 = AXIS2_PLACEMENT_3D('',#426,#427,#428);
#426 = CARTESIAN_POINT('',(-36.26180767376,-49.35156538369,
    -11.13436329302));
#427 = DIRECTION('',(-0.342020124131,0.939692621008,1.127533428399E-04)
  );
#428 = DIRECTION('',(-0.939692627772,-0.342020121669,-4.103885799945E-05
    ));
#429 = PLANE('',#430);
#430 = AXIS2_PLACEMENT_3D('',#431,#432,#433);
#431 = CARTESIAN_POINT('',(-20.26689917718,-43.530755494,-3.963952043779
    ));
#432 = DIRECTION('',(-0.342020124131,0.939692621008,1.127533428399E-04)
  );
#433 = DIRECTION('',(0.939692626981,0.342020126305,4.287332541306E-21));
#434 = ADVANCED_FACE('',(#435),#462,.F.);
#435 = FACE_BOUND('',#436,.F.);
#436 = EDGE_LOOP('',(#437,#447,#453,#454,#455,#456));
#437 = ORIENTED_EDGE('',*,*,#438,.F.);
#438 = EDGE_CURVE('',#439,#441,#443,.T.);
#439 = VERTEX_POINT('',#440);
#440 = CARTESIAN_POINT('',(-11.54763824836,-43.54845719332,-18.290983178
    ));
#441 = VERTEX_POINT('',#442);
#442 = CARTESIAN_POINT('',(-21.8082420375,-15.35767838389,-18.290983178)
  );
#443 = LINE('',#444,#445);
#444 = CARTESIAN_POINT('',(-11.54763824836,-43.54845719332,-18.290983178
    ));
#445 = VECTOR('',#446,1.);
#446 = DIRECTION('',(-0.342020126305,0.939692626981,-5.592690475528E-15)
  );
#447 = ORIENTED_EDGE('',*,*,#448,.T.);
#448 = EDGE_CURVE('',#439,#158,#449,.T.);
#449 = LINE('',#450,#451);
#450 = CARTESIAN_POINT('',(-11.54763824836,-43.54845719332,-18.290983178
    ));
#451 = VECTOR('',#452,1.);
#452 = DIRECTION('',(-2.12E-15,5.18E-15,1.));
#453 = ORIENTED_EDGE('',*,*,#174,.F.);
#454 = ORIENTED_EDGE('',*,*,#300,.T.);
#455 = ORIENTED_EDGE('',*,*,#78,.T.);
#456 = ORIENTED_EDGE('',*,*,#457,.F.);
#457 = EDGE_CURVE('',#441,#79,#458,.T.);
#458 = LINE('',#459,#460);
#459 = CARTESIAN_POINT('',(-21.8082420375,-15.35767838389,-18.290983178)
  );
#460 = VECTOR('',#461,1.);
#461 = DIRECTION('',(-2.12E-15,5.18E-15,1.));
#462 = PLANE('',#463);
#463 = AXIS2_PLACEMENT_3D('',#464,#465,#466);
#464 = CARTESIAN_POINT('',(-11.54763824836,-43.54845719332,-18.290983178
    ));
#465 = DIRECTION('',(-0.939692626981,-0.342020126305,-2.20484114942E-16)
  );
#466 = DIRECTION('',(-0.342020126305,0.939692626981,-5.592690475528E-15)
  );
#467 = ADVANCED_FACE('',(#468),#500,.T.);
#468 = FACE_BOUND('',#469,.T.);
#469 = EDGE_LOOP('',(#470,#480,#486,#492,#493,#494));
#470 = ORIENTED_EDGE('',*,*,#471,.F.);
#471 = EDGE_CURVE('',#472,#474,#476,.T.);
#472 = VERTEX_POINT('',#473);
#473 = CARTESIAN_POINT('',(-30.34149078798,-50.38885971942,-18.290983178
    ));
#474 = VERTEX_POINT('',#475);
#475 = CARTESIAN_POINT('',(-40.60209457712,-22.19808090998,-18.290983178
    ));
#476 = LINE('',#477,#478);
#477 = CARTESIAN_POINT('',(-30.34149078798,-50.38885971942,-18.290983178
    ));
#478 = VECTOR('',#479,1.);
#479 = DIRECTION('',(-0.342020126305,0.939692626981,-5.592690475528E-15)
  );
#480 = ORIENTED_EDGE('',*,*,#481,.T.);
#481 = EDGE_CURVE('',#472,#191,#482,.T.);
#482 = LINE('',#483,#484);
#483 = CARTESIAN_POINT('',(-30.34149078798,-50.38885971942,-18.290983178
    ));
#484 = VECTOR('',#485,1.);
#485 = DIRECTION('',(-2.12E-15,5.18E-15,1.));
#486 = ORIENTED_EDGE('',*,*,#487,.F.);
#487 = EDGE_CURVE('',#352,#191,#488,.T.);
#488 = LINE('',#489,#490);
#489 = CARTESIAN_POINT('',(-30.3414202836,-50.38905342862,
    -14.63448780599));
#490 = VECTOR('',#491,1.);
#491 = DIRECTION('',(0.34202012413,-0.939692621008,-1.127533428399E-04)
  );
#492 = ORIENTED_EDGE('',*,*,#351,.T.);
#493 = ORIENTED_EDGE('',*,*,#94,.T.);
#494 = ORIENTED_EDGE('',*,*,#495,.F.);
#495 = EDGE_CURVE('',#474,#87,#496,.T.);
#496 = LINE('',#497,#498);
#497 = CARTESIAN_POINT('',(-40.60209457712,-22.19808090998,-18.290983178
    ));
#498 = VECTOR('',#499,1.);
#499 = DIRECTION('',(-2.12E-15,5.18E-15,1.));
#500 = PLANE('',#501);
#501 = AXIS2_PLACEMENT_3D('',#502,#503,#504);
#502 = CARTESIAN_POINT('',(-30.34149078798,-50.38885971942,-18.290983178
    ));
#503 = DIRECTION('',(-0.939692626981,-0.342020126305,-2.20484114942E-16)
  );
#504 = DIRECTION('',(-0.342020126305,0.939692626981,-5.592690475528E-15)
  );
#505 = ADVANCED_FACE('',(#506),#517,.T.);
#506 = FACE_BOUND('',#507,.T.);
#507 = EDGE_LOOP('',(#508,#514,#515,#516));
#508 = ORIENTED_EDGE('',*,*,#509,.F.);
#509 = EDGE_CURVE('',#474,#441,#510,.T.);
#510 = LINE('',#511,#512);
#511 = CARTESIAN_POINT('',(-40.60209457712,-22.19808090998,-18.290983178
    ));
#512 = VECTOR('',#513,1.);
#513 = DIRECTION('',(0.939692626981,0.342020126305,2.20484114942E-16));
#514 = ORIENTED_EDGE('',*,*,#495,.T.);
#515 = ORIENTED_EDGE('',*,*,#86,.T.);
#516 = ORIENTED_EDGE('',*,*,#457,.F.);
#517 = PLANE('',#518);
#518 = AXIS2_PLACEMENT_3D('',#519,#520,#521);
#519 = CARTESIAN_POINT('',(-40.60209457712,-22.19808090998,-18.290983178
    ));
#520 = DIRECTION('',(-0.342020126305,0.939692626981,-5.592690475528E-15)
  );
#521 = DIRECTION('',(0.939692626981,0.342020126305,2.20484114942E-16));
#522 = ADVANCED_FACE('',(#523),#542,.F.);
#523 = FACE_BOUND('',#524,.F.);
#524 = EDGE_LOOP('',(#525,#533,#540,#541));
#525 = ORIENTED_EDGE('',*,*,#526,.T.);
#526 = EDGE_CURVE('',#119,#527,#529,.T.);
#527 = VERTEX_POINT('',#528);
#528 = CARTESIAN_POINT('',(-20.74197441527,-39.28223754997,
    -15.55316731021));
#529 = LINE('',#530,#531);
#530 = CARTESIAN_POINT('',(-20.74197441527,-39.28283749797,
    -10.5531673462));
#531 = VECTOR('',#532,1.);
#532 = DIRECTION('',(0.,1.199896003305E-04,-0.999999992801));
#533 = ORIENTED_EDGE('',*,*,#534,.T.);
#534 = EDGE_CURVE('',#527,#527,#535,.T.);
#535 = CIRCLE('',#536,3.);
#536 = AXIS2_PLACEMENT_3D('',#537,#538,#539);
#537 = CARTESIAN_POINT('',(-23.74197441527,-39.28223754997,
    -15.55316731021));
#538 = DIRECTION('',(0.,-1.199896003305E-04,0.999999992801));
#539 = DIRECTION('',(1.,0.,0.));
#540 = ORIENTED_EDGE('',*,*,#526,.F.);
#541 = ORIENTED_EDGE('',*,*,#118,.F.);
#542 = CYLINDRICAL_SURFACE('',#543,3.);
#543 = AXIS2_PLACEMENT_3D('',#544,#545,#546);
#544 = CARTESIAN_POINT('',(-23.74197441527,-39.28283749797,
    -10.5531673462));
#545 = DIRECTION('',(0.,-1.199896003305E-04,0.999999992801));
#546 = DIRECTION('',(1.,0.,0.));
#547 = ADVANCED_FACE('',(#548),#567,.F.);
#548 = FACE_BOUND('',#549,.F.);
#549 = EDGE_LOOP('',(#550,#558,#565,#566));
#550 = ORIENTED_EDGE('',*,*,#551,.T.);
#551 = EDGE_CURVE('',#130,#552,#554,.T.);
#552 = VERTEX_POINT('',#553);
#553 = CARTESIAN_POINT('',(-22.29889131848,-24.53637387008,
    -15.5513979599));
#554 = LINE('',#555,#556);
#555 = CARTESIAN_POINT('',(-22.29889131848,-24.53697381808,
    -10.5513979959));
#556 = VECTOR('',#557,1.);
#557 = DIRECTION('',(0.,1.199896003305E-04,-0.999999992801));
#558 = ORIENTED_EDGE('',*,*,#559,.T.);
#559 = EDGE_CURVE('',#552,#552,#560,.T.);
#560 = CIRCLE('',#561,3.);
#561 = AXIS2_PLACEMENT_3D('',#562,#563,#564);
#562 = CARTESIAN_POINT('',(-25.29889131848,-24.53637387008,
    -15.5513979599));
#563 = DIRECTION('',(0.,-1.199896003305E-04,0.999999992801));
#564 = DIRECTION('',(1.,0.,0.));
#565 = ORIENTED_EDGE('',*,*,#551,.F.);
#566 = ORIENTED_EDGE('',*,*,#129,.F.);
#567 = CYLINDRICAL_SURFACE('',#568,3.);
#568 = AXIS2_PLACEMENT_3D('',#569,#570,#571);
#569 = CARTESIAN_POINT('',(-25.29889131848,-24.53697381808,
    -10.5513979959));
#570 = DIRECTION('',(0.,-1.199896003305E-04,0.999999992801));
#571 = DIRECTION('',(1.,0.,0.));
#572 = ADVANCED_FACE('',(#573),#592,.F.);
#573 = FACE_BOUND('',#574,.F.);
#574 = EDGE_LOOP('',(#575,#583,#590,#591));
#575 = ORIENTED_EDGE('',*,*,#576,.T.);
#576 = EDGE_CURVE('',#141,#577,#579,.T.);
#577 = VERTEX_POINT('',#578);
#578 = CARTESIAN_POINT('',(-29.08930098718,-27.01189818269,
    -15.55169499708));
#579 = LINE('',#580,#581);
#580 = CARTESIAN_POINT('',(-29.08930098718,-27.0124981307,
    -10.55169503307));
#581 = VECTOR('',#582,1.);
#582 = DIRECTION('',(0.,1.199896003305E-04,-0.999999992801));
#583 = ORIENTED_EDGE('',*,*,#584,.T.);
#584 = EDGE_CURVE('',#577,#577,#585,.T.);
#585 = CIRCLE('',#586,3.);
#586 = AXIS2_PLACEMENT_3D('',#587,#588,#589);
#587 = CARTESIAN_POINT('',(-32.08930098718,-27.01189818269,
    -15.55169499708));
#588 = DIRECTION('',(0.,-1.199896003305E-04,0.999999992801));
#589 = DIRECTION('',(1.,0.,0.));
#590 = ORIENTED_EDGE('',*,*,#576,.F.);
#591 = ORIENTED_EDGE('',*,*,#140,.F.);
#592 = CYLINDRICAL_SURFACE('',#593,3.);
#593 = AXIS2_PLACEMENT_3D('',#594,#595,#596);
#594 = CARTESIAN_POINT('',(-32.08930098718,-27.0124981307,
    -10.55169503307));
#595 = DIRECTION('',(0.,-1.199896003305E-04,0.999999992801));
#596 = DIRECTION('',(1.,0.,0.));
#597 = ADVANCED_FACE('',(#598),#609,.F.);
#598 = FACE_BOUND('',#599,.F.);
#599 = EDGE_LOOP('',(#600,#606,#607,#608));
#600 = ORIENTED_EDGE('',*,*,#601,.F.);
#601 = EDGE_CURVE('',#472,#439,#602,.T.);
#602 = LINE('',#603,#604);
#603 = CARTESIAN_POINT('',(-30.34149078798,-50.38885971942,-18.290983178
    ));
#604 = VECTOR('',#605,1.);
#605 = DIRECTION('',(0.939692626981,0.342020126305,2.20484114942E-16));
#606 = ORIENTED_EDGE('',*,*,#481,.T.);
#607 = ORIENTED_EDGE('',*,*,#190,.F.);
#608 = ORIENTED_EDGE('',*,*,#448,.F.);
#609 = PLANE('',#610);
#610 = AXIS2_PLACEMENT_3D('',#611,#612,#613);
#611 = CARTESIAN_POINT('',(-30.34149078798,-50.38885971942,-18.290983178
    ));
#612 = DIRECTION('',(-0.342020126305,0.939692626981,-5.592690475528E-15)
  );
#613 = DIRECTION('',(0.939692626981,0.342020126305,2.20484114942E-16));
#614 = ADVANCED_FACE('',(#615),#626,.F.);
#615 = FACE_BOUND('',#616,.F.);
#616 = EDGE_LOOP('',(#617,#618,#619,#620));
#617 = ORIENTED_EDGE('',*,*,#198,.F.);
#618 = ORIENTED_EDGE('',*,*,#487,.F.);
#619 = ORIENTED_EDGE('',*,*,#359,.T.);
#620 = ORIENTED_EDGE('',*,*,#621,.F.);
#621 = EDGE_CURVE('',#199,#360,#622,.T.);
#622 = LINE('',#623,#624);
#623 = CARTESIAN_POINT('',(-38.52467149857,-53.36729370895,
    -14.63484516386));
#624 = VECTOR('',#625,1.);
#625 = DIRECTION('',(-0.342020124131,0.939692621008,1.127533428399E-04)
  );
#626 = PLANE('',#627);
#627 = AXIS2_PLACEMENT_3D('',#628,#629,#630);
#628 = CARTESIAN_POINT('',(-1.876647551212,-40.02850479123,
    -14.63324464789));
#629 = DIRECTION('',(-9.229048857216E-18,-1.199896003305E-04,
    0.999999992801));
#630 = DIRECTION('',(-0.939692627772,-0.342020121669,-4.103885799945E-05
    ));
#631 = ADVANCED_FACE('',(#632),#643,.F.);
#632 = FACE_BOUND('',#633,.F.);
#633 = EDGE_LOOP('',(#634,#635,#636,#642));
#634 = ORIENTED_EDGE('',*,*,#621,.T.);
#635 = ORIENTED_EDGE('',*,*,#367,.T.);
#636 = ORIENTED_EDGE('',*,*,#637,.F.);
#637 = EDGE_CURVE('',#207,#368,#638,.T.);
#638 = LINE('',#639,#640);
#639 = CARTESIAN_POINT('',(-38.52467149857,-53.36990948173,
    7.165150479208));
#640 = VECTOR('',#641,1.);
#641 = DIRECTION('',(-0.342020124131,0.939692621008,1.127533428399E-04)
  );
#642 = ORIENTED_EDGE('',*,*,#206,.F.);
#643 = PLANE('',#644);
#644 = AXIS2_PLACEMENT_3D('',#645,#646,#647);
#645 = CARTESIAN_POINT('',(-38.52467149857,-53.36729370895,
    -14.63484516386));
#646 = DIRECTION('',(0.939692627772,0.342020121669,4.103885799945E-05));
#647 = DIRECTION('',(1.084366832238E-17,-1.199896003305E-04,
    0.999999992801));
#648 = ADVANCED_FACE('',(#649),#660,.F.);
#649 = FACE_BOUND('',#650,.F.);
#650 = EDGE_LOOP('',(#651,#652,#653,#659));
#651 = ORIENTED_EDGE('',*,*,#637,.T.);
#652 = ORIENTED_EDGE('',*,*,#375,.T.);
#653 = ORIENTED_EDGE('',*,*,#654,.F.);
#654 = EDGE_CURVE('',#215,#376,#655,.T.);
#655 = LINE('',#656,#657);
#656 = CARTESIAN_POINT('',(-1.876647551212,-40.03112056401,7.16675099517
    ));
#657 = VECTOR('',#658,1.);
#658 = DIRECTION('',(-0.342020124131,0.939692621008,1.127533428399E-04)
  );
#659 = ORIENTED_EDGE('',*,*,#214,.F.);
#660 = PLANE('',#661);
#661 = AXIS2_PLACEMENT_3D('',#662,#663,#664);
#662 = CARTESIAN_POINT('',(-38.52467149857,-53.36990948173,
    7.165150479208));
#663 = DIRECTION('',(9.229048857216E-18,1.199896003305E-04,
    -0.999999992801));
#664 = DIRECTION('',(0.939692627772,0.342020121669,4.103885799945E-05));
#665 = ADVANCED_FACE('',(#666),#677,.F.);
#666 = FACE_BOUND('',#667,.F.);
#667 = EDGE_LOOP('',(#668,#669,#670,#676));
#668 = ORIENTED_EDGE('',*,*,#654,.T.);
#669 = ORIENTED_EDGE('',*,*,#383,.T.);
#670 = ORIENTED_EDGE('',*,*,#671,.F.);
#671 = EDGE_CURVE('',#223,#384,#672,.T.);
#672 = LINE('',#673,#674);
#673 = CARTESIAN_POINT('',(-1.876647551212,-40.03044862225,
    1.566751035483));
#674 = VECTOR('',#675,1.);
#675 = DIRECTION('',(-0.342020124131,0.939692621008,1.127533428399E-04)
  );
#676 = ORIENTED_EDGE('',*,*,#222,.F.);
#677 = PLANE('',#678);
#678 = AXIS2_PLACEMENT_3D('',#679,#680,#681);
#679 = CARTESIAN_POINT('',(-1.876647551212,-40.03112056401,7.16675099517
    ));
#680 = DIRECTION('',(-0.939692627772,-0.342020121669,-4.103885799945E-05
    ));
#681 = DIRECTION('',(-1.084366832238E-17,1.199896003305E-04,
    -0.999999992801));
#682 = ADVANCED_FACE('',(#683),#689,.F.);
#683 = FACE_BOUND('',#684,.F.);
#684 = EDGE_LOOP('',(#685,#686,#687,#688));
#685 = ORIENTED_EDGE('',*,*,#671,.T.);
#686 = ORIENTED_EDGE('',*,*,#391,.T.);
#687 = ORIENTED_EDGE('',*,*,#325,.F.);
#688 = ORIENTED_EDGE('',*,*,#230,.F.);
#689 = PLANE('',#690);
#690 = AXIS2_PLACEMENT_3D('',#691,#692,#693);
#691 = CARTESIAN_POINT('',(-1.876647551212,-40.03044862225,
    1.566751035483));
#692 = DIRECTION('',(-9.229048857216E-18,-1.199896003305E-04,
    0.999999992801));
#693 = DIRECTION('',(-0.939692627772,-0.342020121669,-4.103885799945E-05
    ));
#694 = ADVANCED_FACE('',(#695),#706,.F.);
#695 = FACE_BOUND('',#696,.T.);
#696 = EDGE_LOOP('',(#697,#703,#704,#705));
#697 = ORIENTED_EDGE('',*,*,#698,.T.);
#698 = EDGE_CURVE('',#248,#411,#699,.T.);
#699 = LINE('',#700,#701);
#700 = CARTESIAN_POINT('',(-6.199233638964,-41.60399316008,
    3.666562241619));
#701 = VECTOR('',#702,1.);
#702 = DIRECTION('',(-0.342020124131,0.939692621008,1.127533428399E-04)
  );
#703 = ORIENTED_EDGE('',*,*,#410,.T.);
#704 = ORIENTED_EDGE('',*,*,#698,.F.);
#705 = ORIENTED_EDGE('',*,*,#247,.F.);
#706 = CYLINDRICAL_SURFACE('',#707,1.1);
#707 = AXIS2_PLACEMENT_3D('',#708,#709,#710);
#708 = CARTESIAN_POINT('',(-5.165571748414,-41.22777102625,
    3.666607384363));
#709 = DIRECTION('',(0.342020124131,-0.939692621008,-1.127533428399E-04)
  );
#710 = DIRECTION('',(-0.939692627772,-0.342020121669,-4.103885799945E-05
    ));
#711 = ADVANCED_FACE('',(#712),#723,.F.);
#712 = FACE_BOUND('',#713,.T.);
#713 = EDGE_LOOP('',(#714,#720,#721,#722));
#714 = ORIENTED_EDGE('',*,*,#715,.T.);
#715 = EDGE_CURVE('',#259,#400,#716,.T.);
#716 = LINE('',#717,#718);
#717 = CARTESIAN_POINT('',(-36.26940919192,-52.54845884047,
    2.145236808605));
#718 = VECTOR('',#719,1.);
#719 = DIRECTION('',(-0.342020124131,0.939692621008,1.127533428399E-04)
  );
#720 = ORIENTED_EDGE('',*,*,#399,.T.);
#721 = ORIENTED_EDGE('',*,*,#715,.F.);
#722 = ORIENTED_EDGE('',*,*,#258,.F.);
#723 = CYLINDRICAL_SURFACE('',#724,1.1);
#724 = AXIS2_PLACEMENT_3D('',#725,#726,#727);
#725 = CARTESIAN_POINT('',(-35.23574730137,-52.17223670664,
    2.145281951348));
#726 = DIRECTION('',(0.342020124131,-0.939692621008,-1.127533428399E-04)
  );
#727 = DIRECTION('',(-0.939692627772,-0.342020121669,-4.103885799945E-05
    ));
#728 = ADVANCED_FACE('',(#729),#740,.F.);
#729 = FACE_BOUND('',#730,.T.);
#730 = EDGE_LOOP('',(#731,#737,#738,#739));
#731 = ORIENTED_EDGE('',*,*,#732,.T.);
#732 = EDGE_CURVE('',#270,#422,#733,.T.);
#733 = LINE('',#734,#735);
#734 = CARTESIAN_POINT('',(-36.26940919192,-52.54686538055,
    -11.13474669579));
#735 = VECTOR('',#736,1.);
#736 = DIRECTION('',(-0.342020124131,0.939692621008,1.127533428399E-04)
  );
#737 = ORIENTED_EDGE('',*,*,#421,.T.);
#738 = ORIENTED_EDGE('',*,*,#732,.F.);
#739 = ORIENTED_EDGE('',*,*,#269,.F.);
#740 = CYLINDRICAL_SURFACE('',#741,1.1);
#741 = AXIS2_PLACEMENT_3D('',#742,#743,#744);
#742 = CARTESIAN_POINT('',(-35.23574730137,-52.17064324671,
    -11.13470155305));
#743 = DIRECTION('',(0.342020124131,-0.939692621008,-1.127533428399E-04)
  );
#744 = DIRECTION('',(-0.939692627772,-0.342020121669,-4.103885799945E-05
    ));
#745 = ADVANCED_FACE('',(#746),#757,.F.);
#746 = FACE_BOUND('',#747,.T.);
#747 = EDGE_LOOP('',(#748,#754,#755,#756));
#748 = ORIENTED_EDGE('',*,*,#749,.T.);
#749 = EDGE_CURVE('',#281,#309,#750,.T.);
#750 = LINE('',#751,#752);
#751 = CARTESIAN_POINT('',(-6.199233638964,-41.60203492885,
    -12.65344564089));
#752 = VECTOR('',#753,1.);
#753 = DIRECTION('',(-0.342020124131,0.939692621008,1.127533428399E-04)
  );
#754 = ORIENTED_EDGE('',*,*,#308,.T.);
#755 = ORIENTED_EDGE('',*,*,#749,.F.);
#756 = ORIENTED_EDGE('',*,*,#280,.F.);
#757 = CYLINDRICAL_SURFACE('',#758,1.1);
#758 = AXIS2_PLACEMENT_3D('',#759,#760,#761);
#759 = CARTESIAN_POINT('',(-5.165571748414,-41.22581279501,
    -12.65340049815));
#760 = DIRECTION('',(0.342020124131,-0.939692621008,-1.127533428399E-04)
  );
#761 = DIRECTION('',(-0.939692627772,-0.342020121669,-4.103885799945E-05
    ));
#762 = ADVANCED_FACE('',(#763,#769,#780,#791),#802,.F.);
#763 = FACE_BOUND('',#764,.T.);
#764 = EDGE_LOOP('',(#765,#766,#767,#768));
#765 = ORIENTED_EDGE('',*,*,#471,.T.);
#766 = ORIENTED_EDGE('',*,*,#509,.T.);
#767 = ORIENTED_EDGE('',*,*,#438,.F.);
#768 = ORIENTED_EDGE('',*,*,#601,.F.);
#769 = FACE_BOUND('',#770,.T.);
#770 = EDGE_LOOP('',(#771));
#771 = ORIENTED_EDGE('',*,*,#772,.T.);
#772 = EDGE_CURVE('',#773,#773,#775,.T.);
#773 = VERTEX_POINT('',#774);
#774 = CARTESIAN_POINT('',(-23.79889131848,-24.53697381808,-18.290983178
    ));
#775 = CIRCLE('',#776,1.5);
#776 = AXIS2_PLACEMENT_3D('',#777,#778,#779);
#777 = CARTESIAN_POINT('',(-25.29889131848,-24.53697381808,-18.290983178
    ));
#778 = DIRECTION('',(-2.12E-15,5.18E-15,1.));
#779 = DIRECTION('',(1.,5.4908E-30,2.12E-15));
#780 = FACE_BOUND('',#781,.T.);
#781 = EDGE_LOOP('',(#782));
#782 = ORIENTED_EDGE('',*,*,#783,.T.);
#783 = EDGE_CURVE('',#784,#784,#786,.T.);
#784 = VERTEX_POINT('',#785);
#785 = CARTESIAN_POINT('',(-30.58930098718,-27.0124981307,-18.290983178)
  );
#786 = CIRCLE('',#787,1.5);
#787 = AXIS2_PLACEMENT_3D('',#788,#789,#790);
#788 = CARTESIAN_POINT('',(-32.08930098718,-27.0124981307,-18.290983178)
  );
#789 = DIRECTION('',(-2.12E-15,5.18E-15,1.));
#790 = DIRECTION('',(1.,5.4908E-30,2.12E-15));
#791 = FACE_BOUND('',#792,.T.);
#792 = EDGE_LOOP('',(#793));
#793 = ORIENTED_EDGE('',*,*,#794,.T.);
#794 = EDGE_CURVE('',#795,#795,#797,.T.);
#795 = VERTEX_POINT('',#796);
#796 = CARTESIAN_POINT('',(-22.24197441527,-39.28283749797,-18.290983178
    ));
#797 = CIRCLE('',#798,1.5);
#798 = AXIS2_PLACEMENT_3D('',#799,#800,#801);
#799 = CARTESIAN_POINT('',(-23.74197441527,-39.28283749797,-18.290983178
    ));
#800 = DIRECTION('',(-2.12E-15,5.18E-15,1.));
#801 = DIRECTION('',(1.,5.4908E-30,2.12E-15));
#802 = PLANE('',#803);
#803 = AXIS2_PLACEMENT_3D('',#804,#805,#806);
#804 = CARTESIAN_POINT('',(-26.25841451032,-32.38132370956,-18.290983178
    ));
#805 = DIRECTION('',(-2.171627843866E-15,5.194531045008E-15,1.));
#806 = DIRECTION('',(-4.464850766072E-46,1.,-5.194531045008E-15));
#807 = ADVANCED_FACE('',(#808,#811),#822,.T.);
#808 = FACE_BOUND('',#809,.T.);
#809 = EDGE_LOOP('',(#810));
#810 = ORIENTED_EDGE('',*,*,#534,.T.);
#811 = FACE_BOUND('',#812,.T.);
#812 = EDGE_LOOP('',(#813));
#813 = ORIENTED_EDGE('',*,*,#814,.F.);
#814 = EDGE_CURVE('',#815,#815,#817,.T.);
#815 = VERTEX_POINT('',#816);
#816 = CARTESIAN_POINT('',(-22.24197441527,-39.28283749797,
    -15.55316738219));
#817 = ELLIPSE('',#818,1.500000010798,1.5);
#818 = AXIS2_PLACEMENT_3D('',#819,#820,#821);
#819 = CARTESIAN_POINT('',(-23.74197441527,-39.28283749797,
    -15.55316738219));
#820 = DIRECTION('',(3.679115004997E-31,-1.199896003305E-04,
    0.999999992801));
#821 = DIRECTION('',(1.766819786106E-11,-0.999999992801,
    -1.199896003305E-04));
#822 = PLANE('',#823);
#823 = AXIS2_PLACEMENT_3D('',#824,#825,#826);
#824 = CARTESIAN_POINT('',(-27.04338890698,-30.27683653425,
    -15.55208675573));
#825 = DIRECTION('',(0.,-1.199896003305E-04,0.999999992801));
#826 = DIRECTION('',(0.,0.999999992801,1.199896003305E-04));
#827 = ADVANCED_FACE('',(#828,#831),#842,.T.);
#828 = FACE_BOUND('',#829,.T.);
#829 = EDGE_LOOP('',(#830));
#830 = ORIENTED_EDGE('',*,*,#559,.T.);
#831 = FACE_BOUND('',#832,.T.);
#832 = EDGE_LOOP('',(#833));
#833 = ORIENTED_EDGE('',*,*,#834,.F.);
#834 = EDGE_CURVE('',#835,#835,#837,.T.);
#835 = VERTEX_POINT('',#836);
#836 = CARTESIAN_POINT('',(-23.79889131848,-24.53697381808,
    -15.55139803189));
#837 = ELLIPSE('',#838,1.500000010798,1.5);
#838 = AXIS2_PLACEMENT_3D('',#839,#840,#841);
#839 = CARTESIAN_POINT('',(-25.29889131848,-24.53697381808,
    -15.55139803189));
#840 = DIRECTION('',(3.679115004997E-31,-1.199896003305E-04,
    0.999999992801));
#841 = DIRECTION('',(1.766819786106E-11,-0.999999992801,
    -1.199896003305E-04));
#842 = PLANE('',#843);
#843 = AXIS2_PLACEMENT_3D('',#844,#845,#846);
#844 = CARTESIAN_POINT('',(-27.04338890698,-30.27683653425,
    -15.55208675573));
#845 = DIRECTION('',(0.,-1.199896003305E-04,0.999999992801));
#846 = DIRECTION('',(0.,0.999999992801,1.199896003305E-04));
#847 = ADVANCED_FACE('',(#848,#851),#862,.T.);
#848 = FACE_BOUND('',#849,.T.);
#849 = EDGE_LOOP('',(#850));
#850 = ORIENTED_EDGE('',*,*,#584,.T.);
#851 = FACE_BOUND('',#852,.T.);
#852 = EDGE_LOOP('',(#853));
#853 = ORIENTED_EDGE('',*,*,#854,.F.);
#854 = EDGE_CURVE('',#855,#855,#857,.T.);
#855 = VERTEX_POINT('',#856);
#856 = CARTESIAN_POINT('',(-30.58930098718,-27.0124981307,
    -15.55169506907));
#857 = ELLIPSE('',#858,1.500000010798,1.5);
#858 = AXIS2_PLACEMENT_3D('',#859,#860,#861);
#859 = CARTESIAN_POINT('',(-32.08930098718,-27.0124981307,
    -15.55169506907));
#860 = DIRECTION('',(3.679115004997E-31,-1.199896003305E-04,
    0.999999992801));
#861 = DIRECTION('',(1.766819786106E-11,-0.999999992801,
    -1.199896003305E-04));
#862 = PLANE('',#863);
#863 = AXIS2_PLACEMENT_3D('',#864,#865,#866);
#864 = CARTESIAN_POINT('',(-27.04338890698,-30.27683653425,
    -15.55208675573));
#865 = DIRECTION('',(0.,-1.199896003305E-04,0.999999992801));
#866 = DIRECTION('',(0.,0.999999992801,1.199896003305E-04));
#867 = ADVANCED_FACE('',(#868),#879,.F.);
#868 = FACE_BOUND('',#869,.T.);
#869 = EDGE_LOOP('',(#870,#876,#877,#878));
#870 = ORIENTED_EDGE('',*,*,#871,.F.);
#871 = EDGE_CURVE('',#773,#835,#872,.T.);
#872 = LINE('',#873,#874);
#873 = CARTESIAN_POINT('',(-23.79889131848,-24.53697381808,-18.290983178
    ));
#874 = VECTOR('',#875,1.);
#875 = DIRECTION('',(-2.12E-15,5.18E-15,1.));
#876 = ORIENTED_EDGE('',*,*,#772,.F.);
#877 = ORIENTED_EDGE('',*,*,#871,.T.);
#878 = ORIENTED_EDGE('',*,*,#834,.T.);
#879 = CYLINDRICAL_SURFACE('',#880,1.5);
#880 = AXIS2_PLACEMENT_3D('',#881,#882,#883);
#881 = CARTESIAN_POINT('',(-25.29889131848,-24.53697381808,-18.290983178
    ));
#882 = DIRECTION('',(2.12E-15,-5.18E-15,-1.));
#883 = DIRECTION('',(1.,5.4908E-30,2.12E-15));
#884 = ADVANCED_FACE('',(#885),#896,.F.);
#885 = FACE_BOUND('',#886,.T.);
#886 = EDGE_LOOP('',(#887,#893,#894,#895));
#887 = ORIENTED_EDGE('',*,*,#888,.F.);
#888 = EDGE_CURVE('',#784,#855,#889,.T.);
#889 = LINE('',#890,#891);
#890 = CARTESIAN_POINT('',(-30.58930098718,-27.0124981307,-18.290983178)
  );
#891 = VECTOR('',#892,1.);
#892 = DIRECTION('',(-2.12E-15,5.18E-15,1.));
#893 = ORIENTED_EDGE('',*,*,#783,.F.);
#894 = ORIENTED_EDGE('',*,*,#888,.T.);
#895 = ORIENTED_EDGE('',*,*,#854,.T.);
#896 = CYLINDRICAL_SURFACE('',#897,1.5);
#897 = AXIS2_PLACEMENT_3D('',#898,#899,#900);
#898 = CARTESIAN_POINT('',(-32.08930098718,-27.0124981307,-18.290983178)
  );
#899 = DIRECTION('',(2.12E-15,-5.18E-15,-1.));
#900 = DIRECTION('',(1.,5.4908E-30,2.12E-15));
#901 = ADVANCED_FACE('',(#902),#913,.F.);
#902 = FACE_BOUND('',#903,.T.);
#903 = EDGE_LOOP('',(#904,#910,#911,#912));
#904 = ORIENTED_EDGE('',*,*,#905,.F.);
#905 = EDGE_CURVE('',#795,#815,#906,.T.);
#906 = LINE('',#907,#908);
#907 = CARTESIAN_POINT('',(-22.24197441527,-39.28283749797,-18.290983178
    ));
#908 = VECTOR('',#909,1.);
#909 = DIRECTION('',(-2.12E-15,5.18E-15,1.));
#910 = ORIENTED_EDGE('',*,*,#794,.F.);
#911 = ORIENTED_EDGE('',*,*,#905,.T.);
#912 = ORIENTED_EDGE('',*,*,#814,.T.);
#913 = CYLINDRICAL_SURFACE('',#914,1.5);
#914 = AXIS2_PLACEMENT_3D('',#915,#916,#917);
#915 = CARTESIAN_POINT('',(-23.74197441527,-39.28283749797,-18.290983178
    ));
#916 = DIRECTION('',(2.12E-15,-5.18E-15,-1.));
#917 = DIRECTION('',(1.,5.4908E-30,2.12E-15));
#918 = ( GEOMETRIC_REPRESENTATION_CONTEXT(3) 
GLOBAL_UNCERTAINTY_ASSIGNED_CONTEXT((#922)) GLOBAL_UNIT_ASSIGNED_CONTEXT
((#919,#920,#921)) REPRESENTATION_CONTEXT('Context #1',
  '3D Context with UNIT and UNCERTAINTY') );
#919 = ( LENGTH_UNIT() NAMED_UNIT(*) SI_UNIT(.MILLI.,.METRE.) );
#920 = ( NAMED_UNIT(*) PLANE_ANGLE_UNIT() SI_UNIT($,.RADIAN.) );
#921 = ( NAMED_UNIT(*) SI_UNIT($,.STERADIAN.) SOLID_ANGLE_UNIT() );
#922 = UNCERTAINTY_MEASURE_WITH_UNIT(LENGTH_MEASURE(1.E-05),#919,
  'distance_accuracy_value','confusion accuracy');
#923 = PRODUCT_RELATED_PRODUCT_CATEGORY('part',$,(#7));
#924 = MECHANICAL_DESIGN_GEOMETRIC_PRESENTATION_REPRESENTATION('',(#925)
  ,#918);
#925 = STYLED_ITEM('color',(#926),#15);
#926 = PRESENTATION_STYLE_ASSIGNMENT((#927,#933));
#927 = SURFACE_STYLE_USAGE(.BOTH.,#928);
#928 = SURFACE_SIDE_STYLE('',(#929));
#929 = SURFACE_STYLE_FILL_AREA(#930);
#930 = FILL_AREA_STYLE('',(#931));
#931 = FILL_AREA_STYLE_COLOUR('',#932);
#932 = COLOUR_RGB('',0.678431390124,0.709803936702,0.741176476869);
#933 = CURVE_STYLE('',#934,POSITIVE_LENGTH_MEASURE(0.1),#935);
#934 = DRAUGHTING_PRE_DEFINED_CURVE_FONT('continuous');
#935 = COLOUR_RGB('',9.803921802644E-02,9.803921802644E-02,
  9.803921802644E-02);
ENDSEC;
END-ISO-10303-21;
